<svg id="Layer_1" data-name="Layer 1" xmlns="http://www.w3.org/2000/svg" xmlns:xlink="http://www.w3.org/1999/xlink" viewBox="0 0 561.74 157.53"><defs><style>.cls-1{fill:#3d3d3d;}.cls-2{fill:url(#linear-gradient);}.cls-3{fill:url(#linear-gradient-2);}.cls-4{fill:url(#linear-gradient-3);}.cls-5{fill:url(#linear-gradient-4);}.cls-6{fill:url(#linear-gradient-5);}.cls-7{fill:url(#linear-gradient-6);}.cls-8{fill:url(#linear-gradient-7);}.cls-9{fill:url(#linear-gradient-8);}.cls-10{fill:url(#linear-gradient-9);}.cls-11{fill:url(#linear-gradient-10);}</style><linearGradient id="linear-gradient" x1="17.58" y1="102.14" x2="78.83" y2="-3.95" gradientUnits="userSpaceOnUse"><stop offset="0" stop-color="#0a319b"/><stop offset="1" stop-color="#00b4b1"/></linearGradient><linearGradient id="linear-gradient-2" x1="23.75" y1="41.77" x2="37.48" y2="17.99" xlink:href="#linear-gradient"/><linearGradient id="linear-gradient-3" x1="24.39" y1="123.71" x2="95.86" y2="-0.07" xlink:href="#linear-gradient"/><linearGradient id="linear-gradient-4" x1="16.54" y1="74.81" x2="59.39" y2="0.6" xlink:href="#linear-gradient"/><linearGradient id="linear-gradient-5" x1="35.09" y1="140.82" x2="111.37" y2="8.68" xlink:href="#linear-gradient"/><linearGradient id="linear-gradient-6" x1="84.17" y1="168.59" x2="145.42" y2="62.5" gradientUnits="userSpaceOnUse"><stop offset="0" stop-color="#1a8d23"/><stop offset="1" stop-color="#bfdd3b"/></linearGradient><linearGradient id="linear-gradient-7" x1="125.52" y1="146.65" x2="139.25" y2="122.87" xlink:href="#linear-gradient-6"/><linearGradient id="linear-gradient-8" x1="51.62" y1="155.96" x2="127.91" y2="23.82" xlink:href="#linear-gradient-6"/><linearGradient id="linear-gradient-9" x1="103.61" y1="164.05" x2="146.46" y2="89.83" xlink:href="#linear-gradient-6"/><linearGradient id="linear-gradient-10" x1="67.14" y1="164.71" x2="138.6" y2="40.93" xlink:href="#linear-gradient-6"/></defs><title>Atlas Logo RGB</title><path class="cls-1" d="M262.48,122.7l-8.69-20.14H212.65L204,122.7H192l36.23-81.33h9.94l36.34,81.33ZM216.65,93.29H249.8L233.22,54.54Z" transform="translate(-2.74 -3.56)"/><path class="cls-1" d="M482.79,122.7l-8.69-20.14H433l-8.69,20.14h-12l36.23-81.33h9.94l36.34,81.33ZM437,93.29h33.14L453.54,54.54Z" transform="translate(-2.74 -3.56)"/><polygon class="cls-1" points="401.53 109.28 362.55 109.28 362.55 37.81 350.71 37.81 350.71 118.95 397.15 118.95 401.53 109.28"/><path class="cls-1" d="M516.07,121.09a37.6,37.6,0,0,1-13.54-7.54l4.23-8.69a40.2,40.2,0,0,0,12.34,7A44.65,44.65,0,0,0,533.5,114q9.14,0,14.17-3.43a11.08,11.08,0,0,0,5-9.71A8.63,8.63,0,0,0,548,92.91q-4.69-2.68-14.86-5a84.4,84.4,0,0,1-15.89-4.74,24.4,24.4,0,0,1-9.71-7.2Q504,71.49,504,64.4a21.4,21.4,0,0,1,3.77-12.51,24.68,24.68,0,0,1,10.69-8.46,39.43,39.43,0,0,1,15.94-3A48.14,48.14,0,0,1,550.47,43,34.32,34.32,0,0,1,563,50.46l-4.23,8.69a39.91,39.91,0,0,0-11.54-6.91A35.84,35.84,0,0,0,534.53,50q-8.8,0-13.83,3.71a11.91,11.91,0,0,0-5,10.11,9.33,9.33,0,0,0,4.4,8.34q4.4,2.86,14.11,5.14a111.61,111.61,0,0,1,16.46,4.8A25.65,25.65,0,0,1,560.7,89a16.47,16.47,0,0,1,3.77,11.2,20.61,20.61,0,0,1-3.77,12.34,24.35,24.35,0,0,1-10.8,8.17,42.93,42.93,0,0,1-16.51,2.91A56.44,56.44,0,0,1,516.07,121.09Z" transform="translate(-2.74 -3.56)"/><polygon class="cls-1" points="270.61 37.81 266.21 47.68 294.25 47.68 294.25 118.95 306.29 118.95 306.29 47.68 329.64 47.68 334.01 37.81 270.61 37.81"/><path class="cls-2" d="M84,7.65c-4.57,16-15.13,32.8-29.76,47.42S22.79,80.27,6.83,84.83q-2.08.6-4.1,1A79.3,79.3,0,0,0,3.53,94q2.72-.56,5.55-1.37C26.33,87.72,44.42,76.42,60,60.83S86.9,27.16,91.84,9.89q.81-2.82,1.37-5.55A79.3,79.3,0,0,0,85,3.56Q84.6,5.57,84,7.65Z" transform="translate(-2.74 -3.56)"/><path class="cls-3" d="M35.76,36.59a14.18,14.18,0,0,0,.85-19.1,78.91,78.91,0,0,0-6.45,5,6,6,0,0,1-8.5,8.5,78.87,78.87,0,0,0-5,6.45A14.18,14.18,0,0,0,35.76,36.59Z" transform="translate(-2.74 -3.56)"/><path class="cls-4" d="M114.5,10.69a78.34,78.34,0,0,0-7.56-3C99,27.89,84.86,48.71,66.37,67.2S27.07,99.83,6.86,107.76a78.35,78.35,0,0,0,3,7.56C31.11,107,52.89,92.2,72.13,73S106.15,31.93,114.5,10.69Z" transform="translate(-2.74 -3.56)"/><path class="cls-5" d="M66.77,4.86a78.85,78.85,0,0,0-8,2C59.85,17.1,53.68,31.39,42.13,43S16.28,60.67,6,59.58a78.86,78.86,0,0,0-2,8c13,1.92,29.84-4.87,43.85-18.88S68.69,17.84,66.77,4.86Z" transform="translate(-2.74 -3.56)"/><path class="cls-6" d="M84.25,85.08c19.84-19.84,36.08-41.7,47.42-63.57a78.75,78.75,0,0,0-6.63-4.92c-11,21.51-26.93,43.11-46.56,62.74S37.27,114.9,15.76,125.87a78.75,78.75,0,0,0,4.92,6.63C42.55,121.15,64.41,104.92,84.25,85.08Z" transform="translate(-2.74 -3.56)"/><path class="cls-7" d="M79,157c4.57-16,15.13-32.8,29.76-47.42s31.46-25.19,47.42-29.76q2.08-.6,4.1-1a79.25,79.25,0,0,0-.79-8.16q-2.72.56-5.55,1.37c-17.26,4.94-35.35,16.24-50.94,31.83S76.1,137.49,71.16,154.75q-.81,2.82-1.37,5.55a79.29,79.29,0,0,0,8.16.79Q78.39,159.07,79,157Z" transform="translate(-2.74 -3.56)"/><path class="cls-8" d="M127.23,128.05a14.18,14.18,0,0,0-.85,19.1,78.91,78.91,0,0,0,6.45-5,6,6,0,0,1,8.5-8.5,78.9,78.9,0,0,0,5-6.45A14.18,14.18,0,0,0,127.23,128.05Z" transform="translate(-2.74 -3.56)"/><path class="cls-9" d="M78.74,79.57c-19.84,19.84-36.08,41.7-47.42,63.57a78.77,78.77,0,0,0,6.63,4.92c11-21.51,26.93-43.11,46.56-62.74s41.23-35.58,62.74-46.56a78.71,78.71,0,0,0-4.92-6.63C120.44,43.49,98.59,59.72,78.74,79.57Z" transform="translate(-2.74 -3.56)"/><path class="cls-10" d="M96.23,159.78a78.83,78.83,0,0,0,8-2c-1.09-10.29,5.07-24.58,16.63-36.14S146.72,104,157,105.06a78.83,78.83,0,0,0,2-8c-13-1.92-29.84,4.87-43.85,18.88S94.31,146.8,96.23,159.78Z" transform="translate(-2.74 -3.56)"/><path class="cls-11" d="M48.5,153.95a78.32,78.32,0,0,0,7.56,3c7.93-20.21,22.08-41,40.57-59.52s39.31-32.63,59.52-40.57a78.32,78.32,0,0,0-3-7.56c-21.24,8.35-43,23.13-62.26,42.37S56.85,132.71,48.5,153.95Z" transform="translate(-2.74 -3.56)"/></svg>